# 3ds Max Wavefront OBJ Exporter v0.97b - (c)2007 guruware
# File Created: 05.03.2018 14:55:24

mtllib laser.mtl

#
# object Capsule001
#

v  14.3910 -0.0000 29.9205
v  14.6925 -0.0000 29.8409
v  14.6349 0.1772 29.8409
v  14.4842 0.2867 29.8409
v  14.2978 0.2867 29.8409
v  14.1471 0.1772 29.8409
v  14.0895 -0.0000 29.8409
v  14.1471 -0.1772 29.8409
v  14.2978 -0.2868 29.8409
v  14.4842 -0.2868 29.8409
v  14.6349 -0.1772 29.8409
v  14.9645 -0.0000 29.6101
v  14.8550 0.3371 29.6101
v  14.5682 0.5454 29.6101
v  14.2138 0.5454 29.6101
v  13.9270 0.3371 29.6101
v  13.8175 -0.0000 29.6101
v  13.9270 -0.3371 29.6101
v  14.2138 -0.5454 29.6101
v  14.5682 -0.5454 29.6101
v  14.8550 -0.3371 29.6101
v  15.1804 -0.0000 29.2506
v  15.0296 0.4640 29.2506
v  14.6349 0.7507 29.2506
v  14.1471 0.7507 29.2506
v  13.7524 0.4640 29.2506
v  13.6016 -0.0000 29.2506
v  13.7524 -0.4640 29.2506
v  14.1471 -0.7507 29.2506
v  14.6349 -0.7507 29.2506
v  15.0296 -0.4640 29.2506
v  15.3189 -0.0000 28.7975
v  15.1417 0.5454 28.7975
v  14.6778 0.8825 28.7975
v  14.1042 0.8825 28.7975
v  13.6403 0.5454 28.7975
v  13.4631 -0.0000 28.7975
v  13.6403 -0.5454 28.7975
v  14.1042 -0.8825 28.7975
v  14.6778 -0.8825 28.7975
v  15.1417 -0.5454 28.7975
v  15.3667 -0.0000 28.2953
v  15.1804 0.5735 28.2953
v  14.6925 0.9279 28.2953
v  14.0895 0.9279 28.2953
v  13.6016 0.5735 28.2953
v  13.4153 -0.0000 28.2953
v  13.6016 -0.5735 28.2953
v  14.0895 -0.9279 28.2953
v  14.6925 -0.9279 28.2953
v  15.1804 -0.5735 28.2953
v  15.3667 -0.0000 17.3772
v  15.1804 0.5735 17.3772
v  14.6925 0.9279 17.3772
v  14.0895 0.9279 17.3772
v  13.6016 0.5735 17.3772
v  13.4153 -0.0000 17.3772
v  13.6016 -0.5735 17.3772
v  14.0895 -0.9279 17.3772
v  14.6925 -0.9279 17.3772
v  15.1804 -0.5735 17.3772
v  15.3189 -0.0000 16.8750
v  15.1417 0.5454 16.8750
v  14.6778 0.8825 16.8750
v  14.1042 0.8825 16.8750
v  13.6403 0.5454 16.8750
v  13.4631 -0.0000 16.8750
v  13.6403 -0.5454 16.8750
v  14.1042 -0.8825 16.8750
v  14.6778 -0.8825 16.8750
v  15.1417 -0.5454 16.8750
v  15.1804 -0.0000 16.4219
v  15.0296 0.4640 16.4219
v  14.6349 0.7507 16.4219
v  14.1471 0.7507 16.4219
v  13.7524 0.4640 16.4219
v  13.6016 -0.0000 16.4219
v  13.7524 -0.4640 16.4219
v  14.1471 -0.7507 16.4219
v  14.6349 -0.7507 16.4219
v  15.0296 -0.4640 16.4219
v  14.9645 -0.0000 16.0624
v  14.8550 0.3371 16.0624
v  14.5682 0.5454 16.0624
v  14.2138 0.5454 16.0624
v  13.9270 0.3371 16.0624
v  13.8175 -0.0000 16.0624
v  13.9270 -0.3371 16.0624
v  14.2138 -0.5454 16.0624
v  14.5682 -0.5454 16.0624
v  14.8550 -0.3371 16.0624
v  14.6925 -0.0000 15.8315
v  14.6349 0.1772 15.8315
v  14.4842 0.2868 15.8315
v  14.2978 0.2868 15.8315
v  14.1471 0.1772 15.8315
v  14.0895 -0.0000 15.8315
v  14.1471 -0.1772 15.8315
v  14.2978 -0.2868 15.8315
v  14.4842 -0.2868 15.8315
v  14.6349 -0.1772 15.8315
v  14.3910 0.0000 15.7520
# 102 vertices

vn -0.0000 -0.0000 1.0000
vn 0.3367 -0.0000 0.9416
vn 0.2724 0.1979 0.9416
vn 0.1041 0.3202 0.9416
vn -0.1041 0.3202 0.9416
vn -0.2724 0.1979 0.9416
vn -0.3367 -0.0000 0.9416
vn -0.2724 -0.1979 0.9416
vn -0.1041 -0.3202 0.9416
vn 0.1041 -0.3202 0.9416
vn 0.2724 -0.1979 0.9416
vn 0.6074 0.0000 0.7944
vn 0.4914 0.3570 0.7944
vn 0.1877 0.5777 0.7944
vn -0.1877 0.5777 0.7944
vn -0.4914 0.3570 0.7944
vn -0.6074 -0.0000 0.7944
vn -0.4914 -0.3570 0.7944
vn -0.1877 -0.5777 0.7944
vn 0.1877 -0.5777 0.7944
vn 0.4914 -0.3570 0.7944
vn 0.8192 0.0000 0.5735
vn 0.6627 0.4815 0.5735
vn 0.2531 0.7791 0.5735
vn -0.2531 0.7791 0.5735
vn -0.6627 0.4815 0.5735
vn -0.8192 -0.0000 0.5735
vn -0.6627 -0.4815 0.5735
vn -0.2531 -0.7791 0.5735
vn 0.2531 -0.7791 0.5735
vn 0.6627 -0.4815 0.5735
vn 0.9538 0.0000 0.3003
vn 0.7717 0.5607 0.3003
vn 0.2948 0.9072 0.3003
vn -0.2948 0.9072 0.3003
vn -0.7717 0.5607 0.3003
vn -0.9538 -0.0000 0.3003
vn -0.7717 -0.5607 0.3003
vn -0.2948 -0.9072 0.3003
vn 0.2948 -0.9072 0.3003
vn 0.7717 -0.5607 0.3003
vn 0.9970 0.0000 0.0773
vn 0.8066 0.5860 0.0773
vn 0.3081 0.9482 0.0773
vn -0.3081 0.9482 0.0773
vn -0.8066 0.5860 0.0773
vn -0.9970 -0.0000 0.0773
vn -0.8066 -0.5860 0.0773
vn -0.3081 -0.9482 0.0773
vn 0.3081 -0.9482 0.0773
vn 0.8066 -0.5860 0.0773
vn 0.9970 0.0000 -0.0773
vn 0.8066 0.5860 -0.0773
vn 0.3081 0.9482 -0.0773
vn -0.3081 0.9482 -0.0773
vn -0.8066 0.5860 -0.0773
vn -0.9970 -0.0000 -0.0773
vn -0.8066 -0.5860 -0.0773
vn -0.3081 -0.9482 -0.0773
vn 0.3081 -0.9482 -0.0773
vn 0.8066 -0.5860 -0.0773
vn 0.9538 0.0000 -0.3003
vn 0.7717 0.5607 -0.3003
vn 0.2948 0.9072 -0.3003
vn -0.2948 0.9072 -0.3003
vn -0.7717 0.5607 -0.3003
vn -0.9538 -0.0000 -0.3003
vn -0.7717 -0.5607 -0.3003
vn -0.2948 -0.9072 -0.3003
vn 0.2948 -0.9072 -0.3003
vn 0.7717 -0.5607 -0.3003
vn 0.8192 0.0000 -0.5735
vn 0.6627 0.4815 -0.5735
vn 0.2531 0.7791 -0.5735
vn -0.2531 0.7791 -0.5735
vn -0.6627 0.4815 -0.5735
vn -0.8192 -0.0000 -0.5735
vn -0.6627 -0.4815 -0.5735
vn -0.2531 -0.7791 -0.5735
vn 0.2531 -0.7791 -0.5735
vn 0.6627 -0.4815 -0.5735
vn 0.6074 0.0000 -0.7944
vn 0.4914 0.3570 -0.7944
vn 0.1877 0.5777 -0.7944
vn -0.1877 0.5777 -0.7944
vn -0.4914 0.3570 -0.7944
vn -0.6074 -0.0000 -0.7944
vn -0.4914 -0.3570 -0.7944
vn -0.1877 -0.5777 -0.7944
vn 0.1877 -0.5777 -0.7944
vn 0.4914 -0.3570 -0.7944
vn 0.3367 0.0000 -0.9416
vn 0.2724 0.1979 -0.9416
vn 0.1041 0.3202 -0.9416
vn -0.1041 0.3202 -0.9416
vn -0.2724 0.1979 -0.9416
vn -0.3367 0.0000 -0.9416
vn -0.2724 -0.1979 -0.9416
vn -0.1041 -0.3202 -0.9416
vn 0.1041 -0.3202 -0.9416
vn 0.2724 -0.1979 -0.9416
vn -0.0000 0.0000 -1.0000
# 102 vertex normals

vt 0.5000 0.5000 0.0000
vt 0.6545 0.5000 0.0000
vt 0.6250 0.5908 0.0000
vt 0.5477 0.6469 0.0000
vt 0.4523 0.6469 0.0000
vt 0.3750 0.5908 0.0000
vt 0.3455 0.5000 0.0000
vt 0.3750 0.4092 0.0000
vt 0.4523 0.3531 0.0000
vt 0.5477 0.3531 0.0000
vt 0.6250 0.4092 0.0000
vt 0.7939 0.5000 0.0000
vt 0.7378 0.6727 0.0000
vt 0.5908 0.7795 0.0000
vt 0.4092 0.7795 0.0000
vt 0.2622 0.6727 0.0000
vt 0.2061 0.5000 0.0000
vt 0.2622 0.3273 0.0000
vt 0.4092 0.2205 0.0000
vt 0.5908 0.2205 0.0000
vt 0.7378 0.3273 0.0000
vt 0.9045 0.5000 0.0000
vt 0.8273 0.7378 0.0000
vt 0.6250 0.8847 0.0000
vt 0.3750 0.8847 0.0000
vt 0.1727 0.7378 0.0000
vt 0.0955 0.5000 0.0000
vt 0.1727 0.2622 0.0000
vt 0.3750 0.1153 0.0000
vt 0.6250 0.1153 0.0000
vt 0.8273 0.2622 0.0000
vt 0.9755 0.5000 0.0000
vt 0.8847 0.7795 0.0000
vt 0.6469 0.9523 0.0000
vt 0.3531 0.9523 0.0000
vt 0.1153 0.7795 0.0000
vt 0.0245 0.5000 0.0000
vt 0.1153 0.2205 0.0000
vt 0.3531 0.0477 0.0000
vt 0.6469 0.0477 0.0000
vt 0.8847 0.2205 0.0000
vt 1.0000 0.5000 0.0000
vt 0.9045 0.7939 0.0000
vt 0.6545 0.9755 0.0000
vt 0.3455 0.9755 0.0000
vt 0.0955 0.7939 0.0000
vt 0.0000 0.5000 0.0000
vt 0.0955 0.2061 0.0000
vt 0.3455 0.0245 0.0000
vt 0.6545 0.0245 0.0000
vt 0.9045 0.2061 0.0000
vt 0.0000 1.0000 0.0000
vt 0.0000 0.0000 0.0000
vt 0.1000 0.0000 0.0000
vt 0.1000 1.0000 0.0000
vt 0.2000 0.0000 0.0000
vt 0.2000 1.0000 0.0000
vt 0.3000 0.0000 0.0000
vt 0.3000 1.0000 0.0000
vt 0.4000 0.0000 0.0000
vt 0.4000 1.0000 0.0000
vt 0.5000 0.0000 0.0000
vt 0.5000 1.0000 0.0000
vt 0.6000 0.0000 0.0000
vt 0.6000 1.0000 0.0000
vt 0.7000 0.0000 0.0000
vt 0.7000 1.0000 0.0000
vt 0.8000 0.0000 0.0000
vt 0.8000 1.0000 0.0000
vt 0.9000 0.0000 0.0000
vt 0.9000 1.0000 0.0000
vt 1.0000 0.0000 0.0000
vt 1.0000 1.0000 0.0000
# 73 texture coords

g Capsule001
usemtl wire_086086086
s 4
f 1/1/1 2/2/2 3/3/3 
f 1/1/1 3/3/3 4/4/4 
f 1/1/1 4/4/4 5/5/5 
f 1/1/1 5/5/5 6/6/6 
f 1/1/1 6/6/6 7/7/7 
f 1/1/1 7/7/7 8/8/8 
f 1/1/1 8/8/8 9/9/9 
f 1/1/1 9/9/9 10/10/10 
f 1/1/1 10/10/10 11/11/11 
f 1/1/1 11/11/11 2/2/2 
f 2/2/2 12/12/12 13/13/13 3/3/3 
f 3/3/3 13/13/13 14/14/14 4/4/4 
f 4/4/4 14/14/14 15/15/15 5/5/5 
f 5/5/5 15/15/15 16/16/16 6/6/6 
f 6/6/6 16/16/16 17/17/17 7/7/7 
f 7/7/7 17/17/17 18/18/18 8/8/8 
f 8/8/8 18/18/18 19/19/19 9/9/9 
f 9/9/9 19/19/19 20/20/20 10/10/10 
f 10/10/10 20/20/20 21/21/21 11/11/11 
f 11/11/11 21/21/21 12/12/12 2/2/2 
f 12/12/12 22/22/22 23/23/23 13/13/13 
f 13/13/13 23/23/23 24/24/24 14/14/14 
f 14/14/14 24/24/24 25/25/25 15/15/15 
f 15/15/15 25/25/25 26/26/26 16/16/16 
f 16/16/16 26/26/26 27/27/27 17/17/17 
f 17/17/17 27/27/27 28/28/28 18/18/18 
f 18/18/18 28/28/28 29/29/29 19/19/19 
f 19/19/19 29/29/29 30/30/30 20/20/20 
f 20/20/20 30/30/30 31/31/31 21/21/21 
f 21/21/21 31/31/31 22/22/22 12/12/12 
f 22/22/22 32/32/32 33/33/33 23/23/23 
f 23/23/23 33/33/33 34/34/34 24/24/24 
f 24/24/24 34/34/34 35/35/35 25/25/25 
f 25/25/25 35/35/35 36/36/36 26/26/26 
f 26/26/26 36/36/36 37/37/37 27/27/27 
f 27/27/27 37/37/37 38/38/38 28/28/28 
f 28/28/28 38/38/38 39/39/39 29/29/29 
f 29/29/29 39/39/39 40/40/40 30/30/30 
f 30/30/30 40/40/40 41/41/41 31/31/31 
f 31/31/31 41/41/41 32/32/32 22/22/22 
f 32/32/32 42/42/42 43/43/43 33/33/33 
f 33/33/33 43/43/43 44/44/44 34/34/34 
f 34/34/34 44/44/44 45/45/45 35/35/35 
f 35/35/35 45/45/45 46/46/46 36/36/36 
f 36/36/36 46/46/46 47/47/47 37/37/37 
f 37/37/37 47/47/47 48/48/48 38/38/38 
f 38/38/38 48/48/48 49/49/49 39/39/39 
f 39/39/39 49/49/49 50/50/50 40/40/40 
f 40/40/40 50/50/50 51/51/51 41/41/41 
f 41/41/41 51/51/51 42/42/42 32/32/32 
f 42/52/42 52/53/52 53/54/53 43/55/43 
f 43/55/43 53/54/53 54/56/54 44/57/44 
f 44/57/44 54/56/54 55/58/55 45/59/45 
f 45/59/45 55/58/55 56/60/56 46/61/46 
f 46/61/46 56/60/56 57/62/57 47/63/47 
f 47/63/47 57/62/57 58/64/58 48/65/48 
f 48/65/48 58/64/58 59/66/59 49/67/49 
f 49/67/49 59/66/59 60/68/60 50/69/50 
f 50/69/50 60/68/60 61/70/61 51/71/51 
f 51/71/51 61/70/61 52/72/52 42/73/42 
f 52/42/52 62/32/62 63/33/63 53/43/53 
f 53/43/53 63/33/63 64/34/64 54/44/54 
f 54/44/54 64/34/64 65/35/65 55/45/55 
f 55/45/55 65/35/65 66/36/66 56/46/56 
f 56/46/56 66/36/66 67/37/67 57/47/57 
f 57/47/57 67/37/67 68/38/68 58/48/58 
f 58/48/58 68/38/68 69/39/69 59/49/59 
f 59/49/59 69/39/69 70/40/70 60/50/60 
f 60/50/60 70/40/70 71/41/71 61/51/61 
f 61/51/61 71/41/71 62/32/62 52/42/52 
f 62/32/62 72/22/72 73/23/73 63/33/63 
f 63/33/63 73/23/73 74/24/74 64/34/64 
f 64/34/64 74/24/74 75/25/75 65/35/65 
f 65/35/65 75/25/75 76/26/76 66/36/66 
f 66/36/66 76/26/76 77/27/77 67/37/67 
f 67/37/67 77/27/77 78/28/78 68/38/68 
f 68/38/68 78/28/78 79/29/79 69/39/69 
f 69/39/69 79/29/79 80/30/80 70/40/70 
f 70/40/70 80/30/80 81/31/81 71/41/71 
f 71/41/71 81/31/81 72/22/72 62/32/62 
f 72/22/72 82/12/82 83/13/83 73/23/73 
f 73/23/73 83/13/83 84/14/84 74/24/74 
f 74/24/74 84/14/84 85/15/85 75/25/75 
f 75/25/75 85/15/85 86/16/86 76/26/76 
f 76/26/76 86/16/86 87/17/87 77/27/77 
f 77/27/77 87/17/87 88/18/88 78/28/78 
f 78/28/78 88/18/88 89/19/89 79/29/79 
f 79/29/79 89/19/89 90/20/90 80/30/80 
f 80/30/80 90/20/90 91/21/91 81/31/81 
f 81/31/81 91/21/91 82/12/82 72/22/72 
f 82/12/82 92/2/92 93/3/93 83/13/83 
f 83/13/83 93/3/93 94/4/94 84/14/84 
f 84/14/84 94/4/94 95/5/95 85/15/85 
f 85/15/85 95/5/95 96/6/96 86/16/86 
f 86/16/86 96/6/96 97/7/97 87/17/87 
f 87/17/87 97/7/97 98/8/98 88/18/88 
f 88/18/88 98/8/98 99/9/99 89/19/89 
f 89/19/89 99/9/99 100/10/100 90/20/90 
f 90/20/90 100/10/100 101/11/101 91/21/91 
f 91/21/91 101/11/101 92/2/92 82/12/82 
f 92/2/92 102/1/102 93/3/93 
f 93/3/93 102/1/102 94/4/94 
f 94/4/94 102/1/102 95/5/95 
f 95/5/95 102/1/102 96/6/96 
f 96/6/96 102/1/102 97/7/97 
f 97/7/97 102/1/102 98/8/98 
f 98/8/98 102/1/102 99/9/99 
f 99/9/99 102/1/102 100/10/100 
f 100/10/100 102/1/102 101/11/101 
f 101/11/101 102/1/102 92/2/92 
# 90 polygons - 20 triangles

